<svg id="Group_6665" data-name="Group 6665" xmlns="http://www.w3.org/2000/svg" width="80" height="80" viewBox="0 0 80 80">
  <circle id="Ellipse_34" data-name="Ellipse 34" cx="40" cy="40" r="40" fill="#ffe500"/>
  <path id="Path_4495" data-name="Path 4495" d="M-2.64-4.24h4.8v-2.4h-4.8ZM-23.2,17h2.56V6.12H-23.2Zm4.64,0H-16V12.008L-14.24,17h2.56V6.12h-2.56v5.2L-16,6.12h-2.56Zm11.456.16c1.7,0,3.264-.992,3.264-2.88A4.081,4.081,0,0,0-5.9,10.84c-.72-.5-1.776-1.152-1.776-1.824a.589.589,0,0,1,.672-.656c.32,0,.608.16.608.512v.7H-4V8.552C-4,6.7-5.456,5.96-7.056,5.96A2.912,2.912,0,0,0-10.24,8.84a3.706,3.706,0,0,0,1.632,3.12C-7.76,12.7-6.4,13.288-6.4,14.1a.588.588,0,0,1-.672.656.54.54,0,0,1-.608-.512V13.48h-2.4v1.088C-10.08,16.472-8.592,17.16-7.1,17.16ZM-2.24,17H.32V6.12H-2.24ZM2.4,17H6.176A2.453,2.453,0,0,0,8.8,14.232v-5.5C8.8,7.16,7.712,6.12,5.856,6.12H2.4Zm2.56-2.4V8.52h.5c.784,0,.864.528.864,1.136V13.3c0,.608-.08,1.3-.864,1.3ZM10.4,17h5.12V14.6H12.96V12.68h1.92v-2.4H12.96V8.52h2.56V6.12H10.4Zm6.88,0h2.56V13.1a3.726,3.726,0,0,0,.448-.176L21.12,17h2.56l-1.136-5.6A3.9,3.9,0,0,0,23.68,8.776c0-1.456-.864-2.656-3.248-2.656H17.28Zm2.56-6.208V8.52h.592a.653.653,0,0,1,.736.688A1.942,1.942,0,0,1,19.84,10.792ZM-13.744,34.16c2.368,0,3.472-1.888,3.472-4.752,0-.368-.032-.768-.064-1.168H-13.9v2.08h1.1a2.615,2.615,0,0,1-.128.592c-.128.448-.4.848-.816.848-.784,0-1.072-.928-1.072-3.2,0-2.32.288-3.2,1.072-3.2.608,0,.736.832.864,1.52l2.512-.016c-.192-2.5-1.52-3.9-3.376-3.9-2,0-3.632,1.3-3.632,5.6C-17.376,32.832-15.728,34.16-13.744,34.16Zm8.384,0a3.034,3.034,0,0,0,3.3-3.36V23.12h-2.56v7.04c0,.528.032,1.6-.736,1.6-.784,0-.752-1.088-.752-1.6V23.12h-2.56V30.8A3.054,3.054,0,0,0-5.36,34.16ZM-.224,34h2.56V23.12H-.224Zm4.64,0H8.192a2.453,2.453,0,0,0,2.624-2.768v-5.5c0-1.568-1.088-2.608-2.944-2.608H4.416Zm2.56-2.4V25.52h.5c.784,0,.864.528.864,1.136V30.3c0,.608-.08,1.3-.864,1.3Zm5.44,2.4h5.12V31.6h-2.56V29.68H16.9v-2.4h-1.92V25.52h2.56v-2.4h-5.12ZM-2.64,46.76h4.8v-2.4h-4.8Z" transform="translate(40 21)" fill="#1e2b4a"/>
</svg>
