<svg xmlns="http://www.w3.org/2000/svg" xmlns:xlink="http://www.w3.org/1999/xlink" width="10.14" height="13.489" viewBox="0 0 10.14 13.489">
  <defs>
    <clipPath id="clip-path">
      <rect id="Rectangle_925" data-name="Rectangle 925" width="10.14" height="13.489" fill="#1e2b4a"/>
    </clipPath>
  </defs>
  <g id="Group_6042" data-name="Group 6042" clip-path="url(#clip-path)">
    <path id="Path_3162" data-name="Path 3162" d="M5.07,0A5.07,5.07,0,0,0,0,5.071c0,.033,0,.066,0,.1a5.059,5.059,0,0,0,.26,1.51c.944,3.1,4.156,6.238,4.723,6.775a.125.125,0,0,0,.172,0c.567-.537,3.779-3.675,4.723-6.775a5.059,5.059,0,0,0,.26-1.51c0-.033,0-.067,0-.1A5.07,5.07,0,0,0,5.07,0m0,7.4A2.326,2.326,0,1,1,7.4,5.071,2.326,2.326,0,0,1,5.07,7.4" transform="translate(0 -0.001)" fill="#1e2b4a"/>
  </g>
</svg>
