<svg xmlns="http://www.w3.org/2000/svg" xmlns:xlink="http://www.w3.org/1999/xlink" width="52.788" height="70.224" viewBox="0 0 52.788 70.224">
  <defs>
    <clipPath id="clip-path">
      <rect id="Rectangle_908" data-name="Rectangle 908" width="52.788" height="70.224" fill="#1e2b4a"/>
    </clipPath>
  </defs>
  <g id="Group_5990" data-name="Group 5990" clip-path="url(#clip-path)">
    <path id="Path_3160" data-name="Path 3160" d="M26.394,0A26.394,26.394,0,0,0,0,26.4c0,.173,0,.346.006.519a26.34,26.34,0,0,0,1.353,7.862c4.916,16.136,21.635,32.475,24.587,35.27a.65.65,0,0,0,.895,0c2.953-2.795,19.672-19.134,24.587-35.27a26.34,26.34,0,0,0,1.353-7.862c0-.173.006-.346.006-.519A26.394,26.394,0,0,0,26.394,0m0,38.506A12.112,12.112,0,1,1,38.506,26.4,12.112,12.112,0,0,1,26.394,38.507" transform="translate(0 -0.001)" fill="#1e2b4a"/>
  </g>
</svg>
