<?xml version="1.0" encoding="utf-8"?>
<!-- Generator: Adobe Illustrator 16.0.0, SVG Export Plug-In . SVG Version: 6.00 Build 0)  -->
<!DOCTYPE svg PUBLIC "-//W3C//DTD SVG 1.1//EN" "http://www.w3.org/Graphics/SVG/1.1/DTD/svg11.dtd">
<svg version="1.1" id="Group_6685" xmlns="http://www.w3.org/2000/svg" xmlns:xlink="http://www.w3.org/1999/xlink" x="0px" y="0px"
	 width="43.414px" height="54.33px" viewBox="0 0 43.414 54.33" enable-background="new 0 0 43.414 54.33" xml:space="preserve">
<g>
	<defs>
		<rect id="SVGID_1_" width="43.414" height="54.33"/>
	</defs>
	<clipPath id="SVGID_2_">
		<use xlink:href="#SVGID_1_"  overflow="visible"/>
	</clipPath>
	<path id="Path_4502" clip-path="url(#SVGID_2_)" fill="#044D38" d="M14.912,50.813c1.423-0.269,3.64-0.477,5.958-0.699
		c4.235-0.258,8.438-0.902,12.557-1.924c5.265-1.122,9.234-5.463,9.882-10.807c0.056-0.387,0.092-0.775,0.106-1.164h-9.133
		c-0.244,1.371-0.608,2.399-3.466,3.258c-3.546,0.829-7.156,1.357-10.792,1.58c-2.548,0.239-4.954,0.469-6.792,0.814
		C1.871,44.015,0.546,51.101,0.109,53.442C0.065,53.668,0.033,53.981,0,54.33h9.234c0.364-1.328,1.3-2.687,5.689-3.513 M14.912,32.7
		c1.423-0.27,3.64-0.477,5.958-0.7c4.235-0.261,8.438-0.907,12.557-1.929c5.265-1.122,9.234-5.463,9.882-10.806
		c0.056-0.386,0.092-0.775,0.106-1.165h-9.133c-0.244,1.372-0.608,2.4-3.466,3.258c-3.546,0.83-7.156,1.358-10.792,1.58
		c-2.548,0.24-4.954,0.47-6.792,0.815C1.871,25.9,0.546,32.987,0.109,35.331C0.065,35.558,0.033,35.87,0,36.22h9.234
		c0.364-1.328,1.3-2.687,5.689-3.513 M14.912,14.6c1.423-0.269,3.64-0.477,5.958-0.7c4.235-0.259,8.438-0.905,12.557-1.929
		c5.265-1.122,9.234-5.463,9.882-10.806C43.363,0.779,43.398,0.39,43.414,0h-9.132c-0.244,1.372-0.608,2.4-3.466,3.258
		c-3.546,0.83-7.156,1.358-10.792,1.58c-2.548,0.24-4.954,0.47-6.792,0.815C1.871,7.8,0.546,14.879,0.109,17.223
		C0.065,17.449,0.033,17.762,0,18.111h9.234c0.364-1.328,1.3-2.686,5.689-3.512"/>
</g>
</svg>
