<svg id="Group_6685" data-name="Group 6685" xmlns="http://www.w3.org/2000/svg" xmlns:xlink="http://www.w3.org/1999/xlink" width="43.414" height="54.33" viewBox="0 0 43.414 54.33">
  <defs>
    <clipPath id="clip-path">
      <rect id="Rectangle_989" data-name="Rectangle 989" width="43.414" height="54.33" fill="#ffcde8"/>
    </clipPath>
  </defs>
  <g id="Group_6684" data-name="Group 6684" transform="translate(0 0)" clip-path="url(#clip-path)">
    <path id="Path_4502" data-name="Path 4502" d="M14.912,50.814c1.423-.269,3.64-.477,5.958-.7A69.68,69.68,0,0,0,33.427,48.19a12.6,12.6,0,0,0,9.882-10.806,11.35,11.35,0,0,0,.106-1.165H34.282c-.244,1.372-.608,2.4-3.465,3.258a64.632,64.632,0,0,1-10.792,1.58c-2.548.24-4.954.47-6.792.815C1.871,44.015.546,51.1.109,53.442c-.044.226-.076.539-.109.888H9.234c.364-1.328,1.3-2.686,5.689-3.512M14.912,32.7c1.423-.269,3.64-.477,5.958-.7a70.053,70.053,0,0,0,12.557-1.929,12.6,12.6,0,0,0,9.882-10.806,11.35,11.35,0,0,0,.106-1.165H34.282c-.244,1.372-.608,2.4-3.465,3.258a64.632,64.632,0,0,1-10.792,1.58c-2.548.24-4.954.47-6.792.815C1.871,25.9.546,32.987.109,35.331c-.044.226-.076.539-.109.888H9.234c.364-1.328,1.3-2.686,5.689-3.512M14.912,14.6c1.423-.269,3.64-.477,5.958-.7a69.679,69.679,0,0,0,12.557-1.929A12.6,12.6,0,0,0,43.309,1.165,11.35,11.35,0,0,0,43.414,0H34.282c-.244,1.372-.608,2.4-3.465,3.258a64.632,64.632,0,0,1-10.792,1.58c-2.548.24-4.954.47-6.792.815C1.871,7.8.546,14.879.109,17.223c-.044.226-.076.539-.109.888H9.234c.364-1.328,1.3-2.686,5.689-3.512" transform="translate(0 0)" fill="#ffcde8"/>
  </g>
</svg>
