<?xml version="1.0" encoding="UTF-8"?>
<svg xmlns="http://www.w3.org/2000/svg" xmlns:xlink="http://www.w3.org/1999/xlink" viewBox="0 0 48 48" width="48px" height="48px">
<g id="surface7828696">
<path style=" stroke:none;fill-rule:nonzero;fill:rgb(1.568628%,30.19608%,21.960784%);fill-opacity:1;" d="M 12 6 C 8.710938 6 6 8.710938 6 12 L 6 36 C 6 39.289062 8.710938 42 12 42 L 36 42 C 39.289062 42 42 39.289062 42 36 L 42 12 C 42 8.710938 39.289062 6 36 6 Z M 12 10 L 36 10 C 37.128906 10 38 10.871094 38 12 L 38 36 C 38 37.128906 37.128906 38 36 38 L 12 38 C 10.871094 38 10 37.128906 10 36 L 10 12 C 10 10.871094 10.871094 10 12 10 Z M 24 14 L 24 28 C 24 29.128906 23.128906 30 22 30 C 20.871094 30 20 29.128906 20 28 C 20 26.871094 20.871094 26 22 26 L 22 22 C 18.710938 22 16 24.710938 16 28 C 16 31.289062 18.710938 34 22 34 C 25.289062 34 28 31.289062 28 28 L 28 20.464844 C 29.230469 21.34375 30.519531 22 32 22 L 32 18 C 31.90625 18 30.523438 17.5625 29.5625 16.722656 C 28.601562 15.882812 28 14.828125 28 14 Z M 24 14 "/>
</g>
</svg>
