<svg xmlns="http://www.w3.org/2000/svg" width="19.867" height="16.635" viewBox="0 0 19.867 16.635">
  <path id="Twitter_3_" d="M883.378,793.118a7.367,7.367,0,0,1-2.6,1.007,4.084,4.084,0,0,0-2.967-1.324,4.139,4.139,0,0,0-4.079,4.185,5.839,5.839,0,0,0,.106.954,11.472,11.472,0,0,1-8.371-4.344,4.066,4.066,0,0,0-.53,2.119,4.412,4.412,0,0,0,1.8,3.5,3.766,3.766,0,0,1-1.854-.53v.053a4.106,4.106,0,0,0,3.285,4.079,3.414,3.414,0,0,1-1.06.159,3.257,3.257,0,0,1-.742-.053,4.156,4.156,0,0,0,3.815,2.914,8,8,0,0,1-5.033,1.8,5.753,5.753,0,0,1-.953-.053,11.407,11.407,0,0,0,6.252,1.854c7.47,0,11.6-6.357,11.6-11.867v-.53a7.879,7.879,0,0,0,2.013-2.172,7.272,7.272,0,0,1-2.331.636A5.84,5.84,0,0,0,883.378,793.118Z" transform="translate(-864.2 -792.8)" fill="#ffe500"/>
</svg>
